<svg width="227" height="227" viewBox="0 0 227 227" fill="none" xmlns="http://www.w3.org/2000/svg">
<path d="M76.5767 58.556L62.034 22.5615C60.2712 18.1985 59.0797 8.52958 68.4156 4.75762C77.7515 0.985662 83.611 8.76863 85.3738 13.1316L99.9165 49.1261C101.679 53.4891 102.871 63.1581 93.5349 66.9301C84.199 70.702 78.3395 62.919 76.5767 58.556Z" fill="#02AFB0"/>
<path d="M126.288 49.0835L140.831 13.0889C142.594 8.72594 148.453 0.942981 157.789 4.71494C167.125 8.4869 165.934 18.1558 164.171 22.5188L149.628 58.5134C147.865 62.8763 142.006 70.6593 132.67 66.8874C123.334 63.1154 124.525 53.4465 126.288 49.0835Z" fill="#02AFB0"/>
<path d="M176.519 126.288L212.513 140.831C216.876 142.594 224.659 148.453 220.887 157.789C217.115 167.125 207.446 165.934 203.083 164.171L167.089 149.628C162.726 147.865 154.943 142.006 158.715 132.67C162.487 123.334 172.156 124.526 176.519 126.288Z" fill="#02AFB0"/>
<path d="M100.171 177.519L85.628 213.513C83.8653 217.876 78.0058 225.659 68.6699 221.887C59.334 218.115 60.5255 208.446 62.2883 204.084L76.831 168.089C78.5938 163.726 84.4533 155.943 93.7892 159.715C103.125 163.487 101.934 173.156 100.171 177.519Z" fill="#02AFB0"/>
<path d="M49.0835 100.171L13.0889 85.628C8.72594 83.8653 0.942981 78.0058 4.71494 68.6699C8.4869 59.334 18.1558 60.5255 22.5188 62.2883L58.5134 76.831C62.8763 78.5938 70.6593 84.4533 66.8874 93.7892C63.1154 103.125 53.4465 101.934 49.0835 100.171Z" fill="#02AFB0"/>
<path d="M168.089 76.831L204.084 62.2883C208.446 60.5255 218.115 59.334 221.887 68.6699C225.659 78.0058 217.876 83.8653 213.513 85.6281L177.519 100.171C173.156 101.934 163.487 103.125 159.715 93.7892C155.943 84.4533 163.726 78.5938 168.089 76.831Z" fill="#02AFB0"/>
<path d="M149.628 168.089L164.171 204.084C165.934 208.446 167.125 218.115 157.789 221.887C148.453 225.659 142.594 217.876 140.831 213.513L126.288 177.519C124.526 173.156 123.334 163.487 132.67 159.715C142.006 155.943 147.865 163.726 149.628 168.089Z" fill="#02AFB0"/>
<path d="M58.5133 149.628L22.5188 164.171C18.1558 165.934 8.48689 167.125 4.71493 157.789C0.942968 148.453 8.72593 142.594 13.0889 140.831L49.0835 126.288C53.4464 124.526 63.1154 123.334 66.8874 132.67C70.6593 142.006 62.8763 147.865 58.5133 149.628Z" fill="#02AFB0"/>
</svg>
